HIERARCHY
ROOT Hips
{
	OFFSET 0.000000 0.000000 0.000000 
	CHANNELS 6 Xposition Yposition Zposition Zrotation Yrotation Xrotation
	JOINT LeftUpLeg
	{
		OFFSET 1.363060 -1.794630 0.839290 
		CHANNELS 3 Zrotation Yrotation Xrotation
		JOINT LeftLeg
		{
			OFFSET 2.448110 -6.726130 0.000000 
			CHANNELS 3 Zrotation Yrotation Xrotation
			JOINT LeftFoot
			{
				OFFSET 2.562200 -7.039590 0.000000 
				CHANNELS 3 Zrotation Yrotation Xrotation
				JOINT LeftToeBase
				{
					OFFSET 0.157640 -0.433110 2.322550 
					CHANNELS 3 Zrotation Yrotation Xrotation
					End Site
					{
						OFFSET 0.000000 0.000000 0.000000 
					}
				}
			}
		}
	}
	JOINT RightUpLeg
	{
		OFFSET -1.305520 -1.794630 0.839290 
		CHANNELS 3 Zrotation Yrotation Xrotation
		JOINT RightLeg
		{
			OFFSET -2.542530 -6.985550 0.000000 
			CHANNELS 3 Zrotation Yrotation Xrotation
			JOINT RightFoot
			{
				OFFSET -2.568260 -7.056230 0.000000 
				CHANNELS 3 Zrotation Yrotation Xrotation
				JOINT RightToeBase
				{
					OFFSET -0.164730 -0.452590 2.363150 
					CHANNELS 3 Zrotation Yrotation Xrotation
					End Site
					{
						OFFSET 0.000000 0.000000 0.000000 
					}
				}
			}
		}
	}
	JOINT Spine
	{
		OFFSET 0.028270 2.035590 -0.193380 
		CHANNELS 3 Zrotation Yrotation Xrotation
		JOINT Spine1
		{
			OFFSET 0.056720 2.048850 -0.042750 
			CHANNELS 3 Zrotation Yrotation Xrotation
			JOINT Neck1
			{
				OFFSET -0.054170 1.746240 0.172020 
				CHANNELS 3 Zrotation Yrotation Xrotation
				JOINT Head
				{
					OFFSET 0.104070 1.761360 -0.123970 
					CHANNELS 3 Zrotation Yrotation Xrotation
					End Site
					{
						OFFSET 0.000000 0.000000 0.000000 
					}
				}
			}
			JOINT LeftArm
			{
				OFFSET 3.362410 1.200890 -0.311210 
				CHANNELS 3 Zrotation Yrotation Xrotation
				JOINT LeftForeArm
				{
					OFFSET 4.983000 -0.000000 -0.000000 
					CHANNELS 3 Zrotation Yrotation Xrotation
					JOINT LeftHand
					{
						OFFSET 3.483560 -0.000000 -0.000000 
						CHANNELS 3 Zrotation Yrotation Xrotation
						JOINT LeftHandIndex1
						{
							OFFSET 0.715260 -0.000000 -0.000000 
							CHANNELS 3 Zrotation Yrotation Xrotation
							End Site
							{
								OFFSET 0.000000 0.000000 0.000000 
							}
						}
					}
				}
			}
			JOINT RightArm
			{
				OFFSET -3.136600 1.374050 -0.404650 
				CHANNELS 3 Zrotation Yrotation Xrotation
				JOINT RightForeArm
				{
					OFFSET -5.241900 -0.000000 -0.000000 
					CHANNELS 3 Zrotation Yrotation Xrotation
					JOINT RightHand
					{
						OFFSET -3.444170 -0.000000 -0.000000 
						CHANNELS 3 Zrotation Yrotation Xrotation
						JOINT RightHandIndex1
						{
							OFFSET -0.622530 -0.000000 -0.000000 
							CHANNELS 3 Zrotation Yrotation Xrotation
							End Site
							{
								OFFSET 0.000000 0.000000 0.000000 
							}
						}
					}
				}
			}
		}
	}
}
MOTION
Frames: 13
Frame Time: 0.041667
15.303920 17.815924 -16.725554 3.522123 -64.444181 4.732062 -11.025073 -12.480833 -24.411047 -1.016541 10.007418 23.251639 -10.176933 26.890851 -4.901938 1.027000 6.446500 18.085600 26.793148 9.161996 -5.118200 0.142991 -7.466646 22.710107 3.820752 -15.950618 -14.831854 -0.007600 -0.564400 1.550900 -0.060581 2.448685 1.817626 -1.822915 1.800478 -6.413848 2.301925 4.095726 2.967856 -2.225300 1.841300 2.051500 -76.552486 8.662673 27.798235 23.899376 -31.174969 -10.697359 -0.361210 -0.445710 -18.663860 -7.125000 0.000000 0.000000 69.386451 -12.425292 41.029603 -21.939920 28.045392 -8.157090 1.354206 3.982851 -9.540945 7.125000 0.000000 0.000000 
15.316419 17.819953 -16.761087 4.190508 -64.718153 4.322340 -11.132588 -12.697111 -24.410951 -1.070971 9.985485 23.218711 -10.173421 26.844313 -5.722201 0.973600 6.281400 17.603200 26.472941 9.062730 -5.519111 0.127809 -7.500791 22.732830 3.877328 -15.985906 -14.242121 -0.000100 -0.055100 0.151400 -0.005245 2.383087 1.884419 -1.573341 1.788748 -6.121712 2.387872 4.337169 2.916004 -2.179500 1.957700 2.062200 -76.970580 8.836175 27.298378 23.980359 -31.277582 -10.794704 -0.324981 -0.404060 -18.159784 -7.125000 0.000000 0.000000 69.024138 -12.129573 40.804870 -21.650575 27.765575 -7.993586 1.287082 4.038000 -8.626164 7.125000 0.000000 0.000000 
15.338317 17.825118 -16.820068 4.279743 -64.342881 4.506009 -11.079289 -12.244156 -24.852743 -1.098188 9.905320 22.879705 -10.106602 26.730013 -4.717441 1.004200 6.376600 17.881000 26.574409 9.597349 -6.019819 0.098636 -7.675994 23.106344 3.752904 -15.780096 -14.861362 -0.063100 -1.620300 4.457500 0.078478 2.170839 1.843093 -1.345077 1.694691 -6.128181 2.412150 4.368563 3.063331 -2.177300 1.978400 2.174000 -77.151498 8.977400 27.231884 24.032320 -31.345229 -10.858708 -0.291194 -0.405662 -18.105357 -7.125000 0.000000 0.000000 68.842150 -11.984197 40.108137 -21.345107 27.462513 -7.816141 1.219680 4.063248 -7.422284 7.125000 0.000000 0.000000 
15.363727 17.825737 -16.860353 5.216269 -64.461046 3.596201 -11.418892 -12.034689 -24.748400 -1.170619 9.789528 22.654083 -9.979016 26.405275 -4.859434 1.100700 6.666300 18.730400 26.189233 9.713695 -6.288324 0.035365 -7.816832 23.475282 3.670470 -15.524442 -14.787185 -0.125900 -2.287100 6.299700 0.017917 2.183306 1.871251 -1.310352 1.713013 -6.212877 2.149810 4.331688 3.036300 -2.349100 1.953700 2.163300 -77.270583 9.298628 27.331844 24.123051 -31.460455 -10.942912 -0.288839 -0.421930 -18.207792 -7.125000 0.000000 0.000000 68.721194 -12.165245 40.128155 -21.193728 27.323088 -7.715934 1.229403 4.019619 -8.111693 7.125000 0.000000 0.000000 
15.387588 17.822122 -16.904872 6.003132 -64.535981 2.808963 -11.696118 -11.739266 -24.676042 -1.245106 9.663260 22.406322 -9.849623 26.063185 -5.026059 1.054400 6.529300 18.328000 25.930801 9.811688 -6.588433 -0.041513 -7.986159 23.901334 3.727280 -15.665175 -14.605377 -0.096200 -2.000300 5.506400 0.040371 2.158266 1.917165 -1.156919 1.716573 -6.244507 2.206310 4.382318 3.026268 -2.294900 1.980000 2.130500 -77.588018 9.631999 27.508900 24.250331 -31.590782 -11.033113 -0.318005 -0.459786 -18.093346 -7.125000 0.000000 0.000000 68.374562 -12.244676 40.292194 -21.026665 27.177676 -7.614100 1.234327 3.996733 -9.106948 7.125000 0.000000 0.000000 
15.401533 17.828836 -16.948566 7.478633 -64.492032 1.567443 -12.329581 -11.365857 -24.840126 -1.287982 9.629218 22.339569 -9.654963 25.653877 -4.894999 0.861200 5.917900 16.546300 25.276374 9.978742 -6.939115 -0.080455 -8.081610 24.127929 3.730631 -15.657573 -14.568881 -0.091700 -1.953000 5.375900 0.075779 2.152313 1.951074 -0.783344 1.750585 -6.179090 2.202650 4.352812 2.961566 -2.228000 1.957100 2.084500 -78.070027 9.796772 27.635848 24.245370 -31.573532 -11.025899 -0.321778 -0.492023 -17.738941 -7.125000 0.000000 0.000000 67.971561 -11.981235 39.676666 -20.569381 26.715017 -7.346453 1.242356 4.018289 -8.882194 7.125000 0.000000 0.000000 
15.408557 17.830076 -16.994635 7.948997 -64.377531 1.249586 -12.593700 -10.722346 -25.154406 -1.272556 9.636564 22.349775 -9.492208 25.324331 -4.205640 0.655200 5.177400 14.415300 25.181860 10.377790 -7.093251 -0.084035 -8.141990 24.241244 3.738399 -15.759798 -14.903032 -0.106000 -2.099600 5.781100 0.181606 2.061811 1.950215 -0.443911 1.732826 -6.146423 1.894367 4.399189 2.924865 -2.370000 1.966200 2.092800 -78.520836 9.989884 27.049884 24.018450 -31.367741 -10.881549 -0.297802 -0.419055 -17.261060 -7.125000 0.000000 0.000000 67.753113 -11.626893 39.037918 -20.019237 26.117987 -7.012899 1.274353 4.015985 -8.413498 7.125000 0.000000 0.000000 
15.436859 17.826770 -17.027379 5.470123 -64.084959 3.557259 -11.538336 -10.296419 -25.572723 -1.195257 9.686258 22.417689 -9.441037 25.165870 -3.498711 0.531200 4.670200 12.970300 26.467203 10.275752 -7.255410 -0.054599 -8.157443 24.176667 3.770307 -15.923209 -14.993283 -0.113500 -2.172200 5.981900 0.425533 1.831668 1.907686 -0.768194 1.568925 -6.170376 1.983099 4.608409 2.986936 -2.347400 2.076800 2.140400 -78.725496 10.191242 26.429606 23.752960 -31.123072 -10.690314 -0.314200 -0.319273 -16.990971 -7.125000 0.000000 0.000000 67.660923 -11.480484 39.222645 -19.807584 25.887454 -6.889728 1.409960 4.043628 -9.443606 7.125000 0.000000 0.000000 
15.470637 17.811586 -17.063635 5.161999 -63.889265 3.616433 -11.334386 -10.270110 -25.637294 -1.175626 9.730215 22.560027 -9.296304 24.810777 -3.563824 0.427900 4.197900 11.634100 26.749121 9.995534 -7.213877 -0.049473 -8.132553 24.115358 3.853794 -16.153035 -14.889065 -0.097300 -2.012100 5.539000 0.478418 1.703901 1.974366 -0.866935 1.498888 -6.270102 2.072677 4.670572 2.787253 -2.335800 2.103100 2.034900 -78.726906 10.261478 26.496130 23.529940 -30.898287 -10.508294 -0.351956 -0.280355 -16.946232 -7.125000 0.000000 0.000000 67.561465 -11.551703 39.215455 -19.771736 25.870141 -6.888068 1.517959 4.108397 -10.658571 7.125000 0.000000 0.000000 
15.504517 17.813549 -17.087703 4.509903 -63.778662 4.051361 -10.972424 -10.483808 -25.603850 -1.133958 9.791391 22.711749 -9.279454 24.767238 -3.528367 0.260900 3.286300 9.076800 27.093013 9.565983 -7.251272 -0.040465 -8.097366 24.020018 3.811846 -15.978814 -14.630511 -0.099000 -2.028900 5.585500 0.549876 1.719396 2.043690 -1.120480 1.479463 -6.277384 1.952257 4.631915 2.643584 -2.406000 2.073500 1.964900 -78.716159 10.280946 26.707388 23.273018 -30.638935 -10.313594 -0.367024 -0.237820 -16.801323 -7.125000 0.000000 0.000000 67.321541 -11.635285 38.289588 -19.534006 25.659053 -6.772613 1.554363 4.129849 -9.510790 7.125000 0.000000 0.000000 
15.520424 17.842678 -17.099375 7.116882 -63.984153 1.570887 -11.897091 -11.438904 -25.053371 -1.182740 9.809976 22.797601 -9.370361 25.040969 -4.329545 0.198200 2.866900 7.908500 25.668973 8.932704 -7.479189 -0.091583 -8.096171 24.115494 3.691534 -15.435711 -14.006680 -0.106700 -2.105900 5.798500 0.368677 1.764593 2.160523 -0.973744 1.531783 -6.101927 1.892389 4.650974 2.810253 -2.415600 2.086200 2.067100 -78.774167 10.373915 26.814354 23.060576 -30.435178 -10.163774 -0.363838 -0.212792 -16.677858 -7.125000 0.000000 0.000000 66.966140 -11.627855 37.157024 -19.188680 25.334999 -6.606216 1.696616 4.167044 -7.520036 7.125000 0.000000 0.000000 
15.540463 17.846809 -17.138007 8.444533 -63.809492 0.401703 -12.242850 -12.052979 -24.912161 -1.178056 9.848714 22.847810 -9.270015 24.918845 -3.933328 0.167200 2.634200 7.262100 25.074254 8.903433 -7.737461 -0.103197 -8.113982 24.133855 3.862101 -15.883052 -13.815061 -0.084300 -1.872500 5.153300 0.351232 1.736265 2.155383 -0.710145 1.548399 -6.183092 1.901940 4.590416 2.822604 -2.364300 2.053500 2.067400 -78.955433 10.540058 26.951151 22.883107 -30.264938 -10.048310 -0.336509 -0.217930 -16.568306 -7.125000 0.000000 0.000000 66.758815 -11.656723 35.969762 -18.861771 25.005205 -6.431103 1.664520 4.165546 -6.194598 7.125000 0.000000 0.000000 
15.562465 17.855279 -17.177775 8.359669 -63.825295 0.455060 -12.172546 -11.471436 -25.029367 -1.107527 9.858586 22.867499 -9.033521 24.500603 -2.241956 0.087300 1.905300 5.244000 25.217564 9.575328 -7.713199 -0.094877 -8.163030 24.208894 3.855650 -15.955833 -14.189094 -0.141500 -2.424500 6.680400 0.384771 1.855462 2.132134 -0.744345 1.609387 -6.356028 2.005420 4.475807 2.593902 -2.289700 1.989500 1.919000 -79.109347 10.750308 26.838106 22.628058 -30.020730 -9.880190 -0.308656 -0.187595 -16.231266 -7.125000 0.000000 0.000000 66.843108 -11.677647 34.997677 -18.586218 24.688938 -6.243747 1.374063 4.061564 -5.802750 7.125000 0.000000 0.000000 
